# File created by Blade
# Date/Time:  Thu Sep 25 18:58:07 2014
# Frame Rate: 120.000 fps
#------------------------------------------------------
:FULLY-SPECIFIED
:DEGREES
586
root -0.308921 32.152780 0.300878 52.945072 88.135929 49.563346
Spine -9.808171 41.219506 -3.893762
Head 14.493620 50.086134 7.059313
LeftShoulder -24.711582 22.601819 19.420360
LeftArm 6.332215 -27.406539 -36.660018
LeftForeArm 19.754010 -0.000000 15.264288
LeftHand -31.331110 -0.000000 -4.710023
LeftHandThumb1 -26.253704 0.000000 33.147579
RightShoulder -8.978445 23.270386 -35.527150
RightArm -5.768303 3.023786 36.971747
RightForeArm -29.842123 -0.000000 11.471949
RightHand -12.226345 -0.000000 12.795447
RightHandThumb1 -24.326973 -0.000000 -32.862282
LeftUpLeg -21.663128 -27.702186 5.510233
LeftLeg 3.526716 -0.000000 -0.000000
LeftFoot 38.003528 -37.937334 -47.764392
LeftToeBase 26.148606 -0.000000 -0.000000
RightUpLeg -1.364191 -43.904651 2.449971
RightLeg 20.255931 -0.000000 -0.000000
RightFoot -22.949319 -46.184876 15.173219
RightToeBase -1.190883 -0.000000 0.000000
587
root -0.292248 32.154306 0.293310 50.402425 88.042658 47.009023
Spine -9.823518 41.197874 -3.920487
Head 14.437894 50.065334 6.979648
LeftShoulder -24.659685 22.537112 19.437191
LeftArm 6.316794 -27.287776 -36.601846
LeftForeArm 19.608415 -0.000000 15.245758
LeftHand -31.337321 0.000000 -4.716196
LeftHandThumb1 -26.253704 0.000000 33.147579
RightShoulder -9.022084 23.307338 -35.522025
RightArm -5.714101 2.896161 36.964670
RightForeArm -29.778567 0.000000 11.475170
RightHand -12.335729 -0.000000 12.746525
RightHandThumb1 -24.326973 -0.000000 -32.862282
LeftUpLeg -21.666463 -27.545655 5.442536
LeftLeg 3.630990 -0.000000 -0.000000
LeftFoot 38.049899 -37.965216 -47.859131
LeftToeBase 26.235060 -0.000000 -0.000000
RightUpLeg -1.307738 -43.895046 2.378626
RightLeg 20.203284 -0.000000 -0.000000
RightFoot -22.885866 -46.095340 15.099404
RightToeBase -1.206190 -0.000000 0.000000
588
root -0.275432 32.156093 0.283121 47.971930 87.916105 44.568222
Spine -9.865065 41.173208 -3.961095
Head 14.555910 50.051465 7.054850
LeftShoulder -24.632723 22.566267 19.457480
LeftArm 6.391479 -27.362111 -36.659137
LeftForeArm 19.695821 -0.000000 15.250372
LeftHand -31.449679 0.000000 -4.704135
LeftHandThumb1 -26.253704 0.000000 33.147579
RightShoulder -8.989393 23.308821 -35.502387
RightArm -5.750320 2.743477 36.957483
RightForeArm -29.651519 -0.000000 11.598136
RightHand -12.498765 -0.000000 12.801632
RightHandThumb1 -24.326973 -0.000000 -32.862282
LeftUpLeg -21.663698 -27.511893 5.407756
LeftLeg 3.708534 -0.000000 -0.000000
LeftFoot 37.907999 -37.840236 -47.906890
LeftToeBase 26.248706 -0.000000 -0.000000
RightUpLeg -1.291633 -43.824726 2.299030
RightLeg 20.202041 -0.000000 -0.000000
RightFoot -22.806567 -46.085327 15.007819
RightToeBase -1.205761 -0.000000 0.000000
589
root -0.258423 32.158342 0.275202 45.154308 87.786488 41.748749
Spine -9.866131 41.143180 -3.947609
Head 14.560423 50.056121 6.994577
LeftShoulder -24.638737 22.597078 19.424274
LeftArm 6.443814 -27.478192 -36.693270
LeftForeArm 19.791373 0.000000 15.342965
LeftHand -31.431836 -0.000000 -4.747512
LeftHandThumb1 -26.253704 0.000000 33.147579
RightShoulder -9.003734 23.306187 -35.522211
RightArm -5.674573 2.876692 36.967430
RightForeArm -29.818889 0.000000 11.532020
RightHand -12.266532 -0.000000 12.842164
RightHandThumb1 -24.326973 -0.000000 -32.862282
LeftUpLeg -21.635383 -27.451771 5.390393
LeftLeg 3.705865 -0.000000 -0.000000
LeftFoot 37.902614 -37.798275 -47.980531
LeftToeBase 26.168283 -0.000000 -0.000000
RightUpLeg -1.246702 -43.764082 2.226135
RightLeg 20.185139 -0.000000 -0.000000
RightFoot -22.733813 -46.018238 14.926086
RightToeBase -1.191559 -0.000000 0.000000
590
root -0.242408 32.160273 0.266248 42.856386 87.653542 39.440960
Spine -9.885556 41.105155 -3.955846
Head 14.584077 50.052595 7.005845
LeftShoulder -24.624629 22.616633 19.413609
LeftArm 6.496234 -27.576121 -36.723533
LeftForeArm 19.826022 -0.000000 15.398574
LeftHand -31.645301 -0.000000 -4.522631
LeftHandThumb1 -26.253704 0.000000 33.147579
RightShoulder -8.992751 23.330993 -35.522455
RightArm -5.689074 2.807964 36.952028
RightForeArm -29.853027 -0.000000 11.565945
RightHand -12.177297 -0.000000 12.901852
RightHandThumb1 -24.326973 -0.000000 -32.862282
LeftUpLeg -21.625080 -27.423328 5.377415
LeftLeg 3.739986 -0.000000 -0.000000
LeftFoot 37.819033 -37.662519 -48.075196
LeftToeBase 26.034657 -0.000000 -0.000000
RightUpLeg -1.214984 -43.693626 2.156540
RightLeg 20.171232 -0.000000 -0.000000
RightFoot -22.696874 -45.944997 14.889278
RightToeBase -1.200239 -0.000000 0.000000
591
root -0.226262 32.162895 0.257154 40.547174 87.509705 37.122328
Spine -9.907777 41.067946 -3.955070
Head 14.614464 50.037678 6.999278
LeftShoulder -24.588434 22.594188 19.397099
LeftArm 6.457590 -27.586588 -36.655652
LeftForeArm 19.846112 -0.000000 15.472929
LeftHand -31.693448 -0.000000 -4.500900
LeftHandThumb1 -26.253704 0.000000 33.147579
RightShoulder -8.978455 23.322959 -35.521633
RightArm -5.667842 2.829421 36.934587
RightForeArm -29.822001 -0.000000 11.527350
RightHand -12.157687 -0.000000 12.865741
RightHandThumb1 -24.326973 -0.000000 -32.862282
LeftUpLeg -21.609218 -27.388219 5.371464
LeftLeg 3.763457 -0.000000 -0.000000
LeftFoot 37.734017 -37.561917 -48.141078
LeftToeBase 25.948286 -0.000000 -0.000000
RightUpLeg -1.169977 -43.622159 2.087870
RightLeg 20.133318 -0.000000 -0.000000
RightFoot -22.672277 -45.852153 14.859403
RightToeBase -1.160666 -0.000000 0.000000
592
root -0.209210 32.165834 0.247944 38.358106 87.348034 34.921968
Spine -9.938603 41.050268 -3.969711
Head 14.666913 50.021866 7.042524
LeftShoulder -24.559560 22.594239 19.447912
LeftArm 6.535497 -27.711055 -36.749240
LeftForeArm 19.916178 -0.000000 15.530289
LeftHand -31.622581 -0.000000 -4.342267
LeftHandThumb1 -26.253704 0.000000 33.147579
RightShoulder -8.984947 23.316588 -35.505167
RightArm -5.653951 2.830908 36.890784
RightForeArm -29.768099 -0.000000 11.510463
RightHand -12.050779 -0.000000 12.794340
RightHandThumb1 -24.326973 -0.000000 -32.862282
LeftUpLeg -21.591830 -27.387884 5.378295
LeftLeg 3.780217 -0.000000 -0.000000
LeftFoot 37.515013 -37.464666 -48.089272
LeftToeBase 25.785933 -0.000000 -0.000000
RightUpLeg -1.133467 -43.558460 2.011717
RightLeg 20.114327 -0.000000 -0.000000
RightFoot -22.612893 -45.746112 14.795131
RightToeBase -1.157067 -0.000000 0.000000
593
root -0.189047 32.169196 0.237228 36.720097 87.184675 33.281332
Spine -9.968614 40.991341 -4.005646
Head 14.698328 50.000263 7.120104
LeftShoulder -24.565918 22.596289 19.489976
LeftArm 6.617370 -27.883144 -36.815035
LeftForeArm 19.999758 -0.000000 15.559318
LeftHand -31.705794 -0.000000 -4.214626
LeftHandThumb1 -26.253704 0.000000 33.147579
RightShoulder -8.997659 23.304950 -35.471146
RightArm -5.626265 2.782854 36.854770
RightForeArm -29.740949 0.000000 11.468409
RightHand -11.867468 -0.000000 12.712848
RightHandThumb1 -24.326973 -0.000000 -32.862282
LeftUpLeg -21.557003 -27.401116 5.364969
LeftLeg 3.791184 -0.000000 -0.000000
LeftFoot 37.318597 -37.421299 -47.995560
LeftToeBase 25.581381 -0.000000 -0.000000
RightUpLeg -1.070290 -43.539506 1.901353
RightLeg 20.080518 -0.000000 -0.000000
RightFoot -22.505283 -45.636185 14.679419
RightToeBase -1.204102 -0.000000 0.000000
594
root -0.173142 32.173479 0.228741 34.639122 87.036736 31.209125
Spine -9.948254 40.948616 -3.959346
Head 14.724997 49.969668 7.159566
LeftShoulder -24.550309 22.570115 19.484133
LeftArm 6.626709 -27.811360 -36.757033
LeftForeArm 19.859043 -0.000000 15.586061
LeftHand -31.622018 -0.000000 -4.224752
LeftHandThumb1 -26.253704 0.000000 33.147579
RightShoulder -9.002873 23.309413 -35.443825
RightArm -5.645798 2.752276 36.776348
RightForeArm -29.687362 -0.000000 11.492402
RightHand -12.100356 -0.000000 12.829366
RightHandThumb1 -24.326973 -0.000000 -32.862282
LeftUpLeg -21.525192 -27.432821 5.400197
LeftLeg 3.807721 -0.000000 -0.000000
LeftFoot 37.144133 -37.289247 -48.004831
LeftToeBase 25.508742 -0.000000 -0.000000
RightUpLeg -0.995692 -43.482683 1.833754
RightLeg 20.026045 -0.000000 -0.000000
RightFoot -22.408557 -45.547761 14.599530
RightToeBase -1.228551 -0.000000 0.000000
595
root -0.150717 32.177084 0.217184 33.589802 86.875809 30.176347
Spine -9.939315 40.899513 -3.967563
Head 14.700994 49.910417 7.139533
LeftShoulder -24.439516 22.429869 19.558247
LeftArm 6.565825 -27.836757 -36.680143
LeftForeArm 19.796910 -0.000000 15.513200
LeftHand -31.603554 0.000000 -4.156270
LeftHandThumb1 -26.253704 0.000000 33.147579
RightShoulder -9.046870 23.257084 -35.466121
RightArm -5.645980 2.780604 36.757102
RightForeArm -29.725412 -0.000000 11.458093
RightHand -12.135611 -0.000000 12.695452
RightHandThumb1 -24.326973 -0.000000 -32.862282
LeftUpLeg -21.461210 -27.482312 5.374583
LeftLeg 3.804264 -0.000000 -0.000000
LeftFoot 36.861547 -37.238896 -47.833671
LeftToeBase 25.160351 -0.000000 -0.000000
RightUpLeg -0.891602 -43.528525 1.679518
RightLeg 20.003682 -0.000000 -0.000000
RightFoot -22.326374 -45.346956 14.476508
RightToeBase -1.160763 -0.000000 0.000000
596
root -0.130706 32.180738 0.205015 32.334166 86.703316 28.923307
Spine -9.974936 40.846411 -3.993131
Head 14.760052 49.854418 7.262756
LeftShoulder -24.483795 22.582507 19.560561
LeftArm 6.804712 -27.917913 -36.768357
LeftForeArm 19.678470 -0.000000 15.472515
LeftHand -31.419233 0.000000 -4.252990
LeftHandThumb1 -26.253704 0.000000 33.147579
RightShoulder -9.044829 23.247290 -35.449864
RightArm -5.720423 2.783842 36.708038
RightForeArm -29.721942 -0.000000 11.474751
RightHand -12.198580 -0.000000 12.646348
RightHandThumb1 -24.326973 -0.000000 -32.862282
LeftUpLeg -21.417688 -27.531349 5.375377
LeftLeg 3.802614 -0.000000 -0.000000
LeftFoot 36.600561 -37.135774 -47.712205
LeftToeBase 24.767912 -0.000000 -0.000000
RightUpLeg -0.813044 -43.478867 1.563606
RightLeg 19.960034 -0.000000 -0.000000
RightFoot -22.217142 -45.230297 14.343810
RightToeBase -1.144642 -0.000000 0.000000
